<?xml version="1.0" encoding="UTF-8" standalone="no"?>
<svg width="86px" height="116px" viewBox="0 0 86 116" version="1.1" xmlns="http://www.w3.org/2000/svg" xmlns:xlink="http://www.w3.org/1999/xlink" xmlns:sketch="http://www.bohemiancoding.com/sketch/ns">
    <!-- Generator: Sketch 3.3.2 (12043) - http://www.bohemiancoding.com/sketch -->
    <title>g260</title>
    <desc>Created with Sketch.</desc>
    <defs></defs>
    <g id="Page-1" stroke="none" stroke-width="1" fill="none" fill-rule="evenodd" sketch:type="MSPage">
        <g id="g260" sketch:type="MSLayerGroup">
            <path d="M9,0 C4.388,0 0.562,3.516 0.06,8 L0,10 C0,14.4 3.6,18 8,18 L20,18 L24,10 L48,10 L44.078,17.842 C44.042,17.916 44.096,18 44.176,18 L86,18 L86,0 L9,0" id="Fill-189" fill="#EBD8BB" sketch:type="MSShapeGroup"></path>
            <path d="M44,18 L44,70.402 C44,71.414 42.668,71.782 42.15,70.916 L32,54 L21.85,70.916 C21.33,71.782 20,71.414 20,70.402 L20,18 L8,18 C3.6,18 0,14.4 0,10 L0,107.916 C0,112.38 3.62,116 8.084,116 L86,116 L86,18 L44,18" id="Fill-1081" fill="#6B4841" sketch:type="MSShapeGroup"></path>
            <path d="M10,18 L8,18 C3.6,18 0,14.4 0,10 L0,107.916 C0,112.382 3.62,116 8.084,116 L10,116 L10,18" id="Fill-2706" fill="#513531" sketch:type="MSShapeGroup"></path>
            <path d="M86,4 L68,4 C66.894,4 66,4.896 66,6 C66,7.106 66.894,8 68,8 L86,8 L86,4" id="Fill-2707" fill="#D3BEA1" sketch:type="MSShapeGroup"></path>
            <path d="M86,10 L70,10 C68.894,10 68,10.896 68,12 C68,13.106 68.894,14 70,14 L86,14 L86,10" id="Fill-2708" fill="#D3BEA1" sketch:type="MSShapeGroup"></path>
            <path d="M24,10 L20,18 L20,70.402 C20,71.414 21.332,71.782 21.85,70.916 L32,54 L42.15,70.916 C42.668,71.782 44,71.414 44,70.402 L44,18 L48,10 L24,10" id="Fill-2709" fill="#DD342E" sketch:type="MSShapeGroup"></path>
            <path d="M24,10 L20,18 L44,18 L48,10 L24,10" id="Fill-2710" fill="#B12621" sketch:type="MSShapeGroup"></path>
        </g>
    </g>
</svg>