<?xml version="1.0" encoding="utf-8"?>
<!-- Generator: Adobe Illustrator 16.0.0, SVG Export Plug-In . SVG Version: 6.00 Build 0)  -->
<!DOCTYPE svg PUBLIC "-//W3C//DTD SVG 1.1//EN" "http://www.w3.org/Graphics/SVG/1.1/DTD/svg11.dtd">
<svg version="1.1" id="Layer_1" xmlns="http://www.w3.org/2000/svg" xmlns:xlink="http://www.w3.org/1999/xlink" x="0px" y="0px"
	 width="1000px" height="1000px" viewBox="0 0 1000 1000" enable-background="new 0 0 1000 1000" xml:space="preserve">
<rect fill="#333333" stroke="#000000" stroke-miterlimit="10" width="1000" height="1000"/>
<text transform="matrix(1 0 0 1 216.9951 500.5293)" fill="#FBB033" font-family="'Edmondsans-Bold'" font-size="115.1408">keep appy</text>
<g>
	<path fill="#FBB033" d="M298.438,534.186c0,0,1.329,1.003,3.915,2.699c2.584,1.698,6.426,4.085,11.417,6.876
		c4.997,2.782,11.147,5.961,18.35,9.212c7.197,3.258,15.427,6.619,24.542,9.806c9.109,3.202,19.102,6.236,29.782,8.92
		c10.677,2.702,22.051,5.017,33.889,6.917c2.97,0.431,5.948,0.921,8.969,1.314c3.021,0.387,6.057,0.813,9.119,1.178
		c3.07,0.313,6.159,0.629,9.263,0.945c3.11,0.263,6.236,0.526,9.374,0.791c1.567,0.148,3.142,0.248,4.723,0.323
		c1.579,0.087,3.161,0.174,4.746,0.261c3.165,0.202,6.348,0.301,9.538,0.418c3.189,0.108,6.381,0.277,9.587,0.264
		c3.155,0.023,6.313,0.046,9.472,0.069c3.29-0.031,6.579-0.063,9.866-0.095c0.814-0.012,1.658-0.004,2.448-0.032l2.364-0.09
		l4.723-0.177c1.576-0.064,3.14-0.1,4.721-0.188c1.588-0.09,3.174-0.181,4.758-0.271c3.168-0.179,6.333-0.314,9.466-0.616
		c6.283-0.48,12.492-1.143,18.634-1.785c3.06-0.399,6.101-0.796,9.12-1.189c3.012-0.452,6.001-0.9,8.966-1.346
		c11.836-1.93,23.208-4.271,33.885-6.985c5.352-1.314,10.509-2.788,15.483-4.277c4.987-1.46,9.75-3.058,14.313-4.643
		c9.126-3.173,17.368-6.513,24.581-9.743c7.221-3.221,13.384-6.377,18.405-9.117c5.014-2.755,8.877-5.109,11.479-6.781
		c2.603-1.671,3.944-2.657,3.944-2.657s-0.991,1.339-3.092,3.66c-2.1,2.318-5.311,5.619-9.71,9.498
		c-4.389,3.89-9.966,8.361-16.719,13.016c-6.749,4.657-14.677,9.492-23.663,14.167c-2.249,1.16-4.55,2.353-6.941,3.454
		c-2.386,1.115-4.803,2.305-7.314,3.375c-2.5,1.103-5.052,2.219-7.684,3.234c-2.627,1.03-5.281,2.134-8.021,3.099
		c-10.92,3.998-22.691,7.552-35.061,10.408c-3.098,0.676-6.214,1.42-9.376,2.041c-3.17,0.58-6.361,1.163-9.573,1.75
		c-3.226,0.501-6.47,1.004-9.731,1.51c-3.266,0.483-6.564,0.784-9.869,1.187c-3.306,0.418-6.633,0.667-9.97,0.958
		c-1.669,0.14-3.341,0.279-5.015,0.42c-1.682,0.111-3.392,0.17-5.089,0.258l-5.108,0.239l-2.557,0.118
		c-0.852,0.038-1.651,0.038-2.479,0.059c-3.286,0.061-6.575,0.121-9.864,0.182l-0.617,0.006l-0.792-0.011l-1.265-0.023l-2.529-0.048
		l-5.056-0.096c-3.369-0.023-6.735-0.231-10.094-0.381c-1.68-0.081-3.357-0.161-5.033-0.242c-1.675-0.104-3.346-0.275-5.015-0.409
		c-1.668-0.144-3.334-0.287-4.998-0.43c-1.663-0.132-3.322-0.288-4.975-0.494c-3.306-0.392-6.604-0.727-9.874-1.163
		c-3.262-0.502-6.508-1.001-9.734-1.497c-3.219-0.55-6.409-1.162-9.577-1.734c-1.588-0.266-3.154-0.636-4.716-0.982
		c-1.562-0.349-3.117-0.695-4.666-1.041c-12.377-2.824-24.16-6.359-35.086-10.351c-10.925-4.002-20.981-8.492-29.971-13.165
		c-8.986-4.685-16.905-9.541-23.641-14.223c-6.74-4.679-12.304-9.168-16.667-13.09c-4.377-3.906-7.562-7.234-9.642-9.57
		C299.415,535.535,298.438,534.186,298.438,534.186z"/>
</g>
</svg>
